<svg width="683" height="683" viewBox="0 0 683 683" fill="none" xmlns="http://www.w3.org/2000/svg">
  <style>
    :root {
      --icon-color: black;
    }
    @media (prefers-color-scheme: dark) {
      :root {
        --icon-color: white;
      }
    }
  </style>
  <g clip-path="url(#clip0_527_116)">
    <path d="M262.26 661.563C286.047 675.37 313.391 682.667 341.333 682.667C369.276 682.667 396.62 675.37 420.406 661.563C442.313 648.849 459.661 642.667 473.443 642.667H682.667C682.667 603.339 682.667 106.87 682.667 80H602.667V0H582.667C490.661 0 402.547 48.8438 338.026 114.432C298.88 91.8646 254.693 80 209.224 80H0V642.667H209.224C223.005 642.667 240.354 648.849 262.26 661.563ZM602.667 482.667V120H642.667V522.667H473.443C463.359 522.667 453.344 523.286 443.427 524.438C488.698 497.547 537.016 482.667 582.667 482.667H602.667ZM361.333 147.854C419.745 86.1563 493.271 47.3021 562.667 40.9271V443.417C488.016 449.016 417.344 485.854 361.333 535.047V147.854ZM209.224 120C248.922 120 287.448 130.719 321.333 151.042V548.297C286.505 531.474 248.344 522.667 209.224 522.667H40V120H209.224ZM40 562.667H209.224C252.438 562.667 294.281 575.339 330.24 599.307L341.333 606.703L352.427 599.307C388.38 575.339 430.229 562.667 473.443 562.667H642.667V602.667H473.443C452.125 602.667 428.891 610.391 400.323 626.969C382.63 637.24 362.234 642.667 341.333 642.667C320.432 642.667 300.036 637.24 282.344 626.969C253.776 610.391 230.542 602.667 209.224 602.667H40V562.667Z" fill="var(--icon-color)"/>
    <path d="M91 373.071C134 428.071 217 422.071 260.5 373.071" stroke="var(--icon-color)" stroke-width="26" stroke-linecap="round"/>
    <circle cx="122.071" cy="287.071" r="18.0714" fill="var(--icon-color)"/>
    <circle cx="223.929" cy="287.071" r="18.0714" fill="var(--icon-color)"/>
  </g>
  <defs>
    <clipPath id="clip0_527_116">
      <rect width="682.667" height="682.667" fill="white"/>
    </clipPath>
  </defs>
</svg>
